<?xml version="1.0" standalone="no"?>
<!DOCTYPE svg PUBLIC "-//W3C//DTD SVG 20010904//EN"
 "http://www.w3.org/TR/2001/REC-SVG-20010904/DTD/svg10.dtd">
<svg version="1.0" xmlns="http://www.w3.org/2000/svg"
 width="421.000000pt" height="421.000000pt" viewBox="0 0 421.000000 421.000000"
 preserveAspectRatio="xMidYMid meet">
<metadata>
Created by potrace 1.14, written by Peter Selinger 2001-2017
</metadata>
<g transform="translate(0.000000,421.000000) scale(0.100000,-0.100000)"
fill="#000000" stroke="none">
<path d="M1742 3615 c-17 -14 -52 -29 -78 -34 -26 -5 -53 -17 -60 -26 -6 -9
-28 -18 -47 -22 -24 -4 -48 -19 -77 -49 -38 -40 -47 -57 -49 -91 -1 -7 -14
-25 -29 -40 -32 -32 -42 -53 -49 -103 -2 -20 -15 -44 -28 -56 -38 -35 -58 -81
-44 -105 6 -12 8 -38 4 -62 -8 -49 -9 -125 -2 -184 2 -23 -1 -64 -8 -91 -20
-75 -27 -151 -30 -334 -2 -92 -6 -172 -10 -178 -4 -7 -16 -2 -32 14 -21 21
-28 23 -54 14 -59 -21 -76 -135 -50 -333 23 -168 57 -235 117 -228 l31 4 17
-85 c44 -224 121 -433 158 -430 13 1 23 -16 38 -62 12 -34 39 -90 60 -123 39
-60 65 -76 76 -46 5 11 15 1 37 -32 62 -95 134 -165 147 -143 4 6 26 -16 49
-49 23 -33 49 -68 58 -77 15 -15 18 -14 31 12 12 23 16 35 21 64 1 3 11 -14
23 -38 27 -52 100 -132 121 -132 20 0 137 117 137 138 0 28 21 -2 25 -38 3
-18 7 -35 10 -38 3 -3 33 23 66 58 33 35 69 64 79 65 22 2 96 62 145 118 23
26 39 37 42 30 16 -42 85 25 140 134 23 47 43 73 57 77 19 5 50 46 53 70 1 5
5 12 11 15 9 6 85 173 97 211 1 3 9 22 18 44 9 21 17 42 17 46 0 4 7 24 15 45
13 29 19 34 29 26 17 -14 54 -1 78 26 16 18 45 79 54 112 2 9 13 48 24 86 27
93 30 108 37 186 9 116 -34 168 -103 123 -27 -18 -27 -21 -10 62 2 11 7 47 10
80 15 149 18 171 22 204 3 19 7 91 9 160 5 142 -8 197 -64 275 -26 37 -31 52
-31 102 0 40 -8 74 -24 108 -25 55 -99 128 -162 160 -21 11 -41 23 -42 28 -2
4 -8 5 -13 1 -5 -3 -9 0 -9 5 0 6 -6 11 -13 11 -7 0 -23 9 -35 20 -12 11 -26
20 -32 20 -5 0 -10 4 -10 9 0 5 -17 17 -37 26 -21 10 -40 21 -43 25 -9 12
-153 77 -199 90 -24 6 -67 22 -96 35 -60 28 -89 35 -165 40 -30 2 -73 11 -94
20 -49 21 -114 25 -146 8 -16 -8 -28 -9 -34 -3 -6 6 -18 10 -28 10 -10 0 -18
5 -18 10 0 6 -3 9 -7 8 -5 -1 -21 4 -36 10 -36 15 -30 16 -65 -13z"/>
</g>
</svg>
